<?xml version="1.0" encoding="utf-8"?>
<svg version="1.1" xmlns:xlink="http://www.w3.org/1999/xlink" width="641px" height="255px" xmlns="http://www.w3.org/2000/svg">
  <defs>
    <mask fill="white" id="clip405">
      <path d="M 0 255  L 65 177.200000000001  L 196.200000000001 74.7999999999993  L 280.200000000001 146  L 441 0.400000000001455  L 441 255  L 640.200000000001 255  L 0 255  Z " fill-rule="evenodd" />
    </mask>
  </defs>
  <g transform="matrix(1 0 0 1 -336 -443 )">
    <path d="M 0 255  L 65 177.200000000001  L 196.200000000001 74.7999999999993  L 280.200000000001 146  L 441 0.400000000001455  L 441 255  L 640.200000000001 255  L 0 255  Z " fill-rule="nonzero" fill="#ffffff" stroke="none" transform="matrix(1 0 0 1 336 443 )" />
    <path d="M 0 255  L 65 177.200000000001  L 196.200000000001 74.7999999999993  L 280.200000000001 146  L 441 0.400000000001455  L 441 255  L 640.200000000001 255  L 0 255  Z " stroke-width="2" stroke="#797979" fill="none" transform="matrix(1 0 0 1 336 443 )" mask="url(#clip405)" />
  </g>
</svg>