<?xml version="1.0" encoding="utf-8"?>
<svg version="1.1" xmlns:xlink="http://www.w3.org/1999/xlink" width="14px" height="16px" xmlns="http://www.w3.org/2000/svg">
  <g transform="matrix(1 0 0 1 -388 -255 )">
    <path d="M 13 10.6596858638743  C 13.6666666666667 11.3438045375218  14 12.1640488656195  14 13.1204188481675  C 14 13.9371727748691  13.7366666666667 14.6212914485166  13.21 15.1727748691099  C 12.6833333333333 15.7242582897033  12.03 16  11.25 16  C 10.35 16  9.56666666666667 15.6509598603839  8.9 14.9528795811518  L 1.13 6.82722513089005  C 0.376666666666667 6.02443280977312  0 5.07853403141361  0 3.98952879581152  C 0 2.87958115183246  0.366666666666667 1.93717277486911  1.1 1.16230366492147  C 1.83333333333333 0.387434554973822  2.73 0  3.79 0  C 4.84333333333333 0  5.75333333333333 0.394415357766141  6.52 1.18324607329843  L 12.57 7.52879581151833  C 12.6366666666667 7.59860383944154  12.67 7.67539267015707  12.67 7.75916230366492  C 12.67 7.87085514834206  12.5683333333333 8.03315881326353  12.365 8.24607329842932  C 12.1616666666667 8.45898778359511  12.0066666666667 8.56544502617801  11.9 8.56544502617801  C 11.8133333333333 8.56544502617801  11.7366666666667 8.5305410122164  11.67 8.46073298429319  L 5.61 2.10471204188482  C 5.08333333333333 1.56719022687609  4.48 1.29842931937173  3.8 1.29842931937173  C 3.09333333333333 1.29842931937173  2.49666666666667 1.56020942408377  2.01 2.08376963350785  C 1.52333333333333 2.60732984293194  1.28 3.239092495637  1.28 3.97905759162304  C 1.28 4.71204188481675  1.53333333333333 5.34380453752181  2.04 5.87434554973822  L 9.8 14.0104712041885  C 10.22 14.4502617801047  10.7033333333333 14.6701570680628  11.25 14.6701570680628  C 11.6766666666667 14.6701570680628  12.03 14.5235602094241  12.31 14.2303664921466  C 12.59 13.9371727748691  12.73 13.5671902268761  12.73 13.1204188481675  C 12.73 12.5479930191972  12.52 12.0418848167539  12.1 11.6020942408377  L 6.29 5.51832460732984  C 6.11666666666667 5.35078534031414  5.91666666666667 5.26701570680628  5.69 5.26701570680628  C 5.49666666666667 5.26701570680628  5.33666666666667 5.33333333333333  5.21 5.46596858638743  C 5.08333333333333 5.59860383944154  5.02 5.76614310645724  5.02 5.96858638743456  C 5.02 6.19197207678883  5.10333333333333 6.3979057591623  5.27 6.58638743455497  L 9.37 10.8795811518325  C 9.43666666666667 10.9493891797557  9.47 11.0261780104712  9.47 11.1099476439791  C 9.47 11.2216404886562  9.36666666666667 11.3856893542757  9.16 11.6020942408377  C 8.95333333333333 11.8184991273996  8.79666666666667 11.9267015706806  8.69 11.9267015706806  C 8.61 11.9267015706806  8.53666666666667 11.891797556719  8.47 11.8219895287958  L 4.37 7.52879581151833  C 3.95 7.10296684118673  3.74 6.58289703315881  3.74 5.96858638743456  C 3.74 5.39616055846422  3.93 4.91099476439791  4.31 4.5130890052356  C 4.69 4.1151832460733  5.15333333333333 3.91623036649215  5.7 3.91623036649215  C 6.28666666666667 3.91623036649215  6.78333333333333 4.13612565445026  7.19 4.57591623036649  L 13 10.6596858638743  Z " fill-rule="nonzero" fill="#000000" stroke="none" transform="matrix(1 0 0 1 388 255 )" />
  </g>
</svg>