<?xml version="1.0" encoding="utf-8"?>
<svg version="1.1" xmlns:xlink="http://www.w3.org/1999/xlink" width="18px" height="15px" xmlns="http://www.w3.org/2000/svg">
  <g transform="matrix(1 0 0 1 -336 -61 )">
    <path d="M 5.29411764705882 10.7979910714286  L 5.29411764705882 13.6607142857143  L 8.47058823529412 12.0535714285714  L 8.47058823529412 9.42522321428572  L 5.29411764705882 10.7979910714286  Z M 1.42279411764706 8.41238839285714  L 4.76470588235294 9.86049107142857  L 8.10661764705882 8.41238839285714  L 4.76470588235294 6.96428571428571  L 1.42279411764706 8.41238839285714  Z M 13.7647058823529 10.7979910714286  L 13.7647058823529 13.6607142857143  L 16.9411764705882 12.0535714285714  L 16.9411764705882 9.42522321428572  L 13.7647058823529 10.7979910714286  Z M 9.89338235294118 8.41238839285714  L 13.2352941176471 9.86049107142857  L 16.5772058823529 8.41238839285714  L 13.2352941176471 6.96428571428571  L 9.89338235294118 8.41238839285714  Z M 9.52941176470588 5.17299107142857  L 9.52941176470588 7.40792410714286  L 12.7058823529412 6.02678571428571  L 12.7058823529412 3.80022321428571  L 9.52941176470588 5.17299107142857  Z M 5.35202205882353 2.65345982142857  L 9 4.23549107142857  L 12.6479779411765 2.65345982142857  L 9 1.07142857142857  L 5.35202205882353 2.65345982142857  Z M 17.8262867647059 7.98549107142857  C 17.9420955882353 8.1640625  18 8.359375  18 8.57142857142857  L 18 12.0535714285714  C 18 12.2544642857143  17.9476102941176 12.44140625  17.8428308823529 12.6143973214286  C 17.7380514705882 12.7873883928571  17.5946691176471 12.9185267857143  17.4126838235294 13.0078125  L 13.7068014705882 14.8828125  C 13.5689338235294 14.9609375  13.4117647058824 15  13.2352941176471 15  C 13.0588235294118 15  12.9016544117647 14.9609375  12.7637867647059 14.8828125  L 9.0579044117647 13.0078125  C 9.0358455882353 12.9966517857143  9.01654411764706 12.9854910714286  9 12.9743303571429  C 8.9889705882353 12.9854910714286  8.96966911764706 12.9966517857143  8.94209558823529 13.0078125  L 5.23621323529412 14.8828125  C 5.09834558823529 14.9609375  4.94117647058824 15  4.76470588235294 15  C 4.58823529411765 15  4.43106617647059 14.9609375  4.29319852941176 14.8828125  L 0.587316176470588 13.0078125  C 0.405330882352941 12.9185267857143  0.261948529411765 12.7873883928571  0.157169117647059 12.6143973214286  C 0.0523897058823529 12.44140625  0 12.2544642857143  0 12.0535714285714  L 0 8.57142857142857  C 0 8.359375  0.0592830882352941 8.1640625  0.177849264705882 7.98549107142857  C 0.296415441176471 7.80691964285714  0.452205882352941 7.67299107142857  0.645220588235294 7.58370535714286  L 4.23529411764706 6.02678571428571  L 4.23529411764706 2.67857142857143  C 4.23529411764706 2.46651785714286  4.29457720588235 2.27120535714286  4.41314338235294 2.09263392857143  C 4.53170955882353 1.9140625  4.6875 1.78013392857143  4.88051470588235 1.69084821428571  L 8.58639705882353 0.0837053571428564  C 8.71323529411765 0.0279017857142877  8.85110294117647 0  9 0  C 9.14889705882353 0  9.28676470588235 0.0279017857142877  9.41360294117647 0.0837053571428564  L 13.1194852941176 1.69084821428571  C 13.3125 1.78013392857143  13.4682904411765 1.9140625  13.5868566176471 2.09263392857143  C 13.7054227941176 2.27120535714286  13.7647058823529 2.46651785714286  13.7647058823529 2.67857142857143  L 13.7647058823529 6.02678571428571  L 17.3547794117647 7.58370535714286  C 17.5533088235294 7.67299107142857  17.7104779411765 7.80691964285714  17.8262867647059 7.98549107142857  Z " fill-rule="nonzero" fill="#ec808d" stroke="none" transform="matrix(1 0 0 1 336 61 )" />
  </g>
</svg>