<?xml version="1.0" encoding="utf-8"?>
<svg version="1.1" xmlns:xlink="http://www.w3.org/1999/xlink" width="18px" height="20px" xmlns="http://www.w3.org/2000/svg">
  <g transform="matrix(1 0 0 1 -13 -20 )">
    <path d="M 9 19.1071428571429  C 9.11538461538462 19.1071428571429  9.17307692307693 19.047619047619  9.17307692307692 18.9285714285714  C 9.17307692307693 18.8095238095238  9.11538461538462 18.75  9 18.75  C 8.57451923076923 18.75  8.20853365384616 18.5918898809524  7.90204326923077 18.2756696428571  C 7.59555288461539 17.9594494047619  7.44230769230769 17.5818452380952  7.44230769230769 17.1428571428571  C 7.44230769230769 17.0238095238095  7.38461538461539 16.9642857142857  7.26923076923077 16.9642857142857  C 7.15384615384615 16.9642857142857  7.09615384615385 17.0238095238095  7.09615384615385 17.1428571428571  C 7.09615384615385 17.6860119047619  7.28185096153846 18.149181547619  7.65324519230769 18.5323660714286  C 8.02463942307692 18.9155505952381  8.47355769230769 19.1071428571429  9 19.1071428571429  Z M 17.015625 14.7321428571429  C 17.3112980769231 15.0744047619048  17.6394230769231 15.4017857142857  18 15.7142857142857  C 18 16.1011904761905  17.8629807692308 16.4360119047619  17.5889423076923 16.71875  C 17.3149038461538 17.0014880952381  16.9903846153846 17.1428571428571  16.6153846153846 17.1428571428571  L 11.7692307692308 17.1428571428571  C 11.7692307692308 17.9315476190476  11.4987980769231 18.6049107142857  10.9579326923077 19.1629464285714  C 10.4170673076923 19.7209821428571  9.76442307692308 20  9 20  C 8.23557692307692 20  7.58293269230769 19.7209821428571  7.04206730769231 19.1629464285714  C 6.50120192307692 18.6049107142857  6.23076923076923 17.9315476190476  6.23076923076923 17.1428571428571  L 1.38461538461538 17.1428571428571  C 1.00961538461538 17.1428571428571  0.685096153846154 17.0014880952381  0.411057692307692 16.71875  C 0.137019230769231 16.4360119047619  0 16.1011904761905  0 15.7142857142857  C 0.360576923076923 15.4017857142857  0.688701923076923 15.0744047619048  0.984375 14.7321428571429  C 1.28004807692308 14.389880952381  1.58653846153846 13.9453125  1.90384615384615 13.3984375  C 2.22115384615385 12.8515625  2.48978365384615 12.2619047619048  2.70973557692308 11.6294642857143  C 2.9296875 10.9970238095238  3.10997596153846 10.2306547619048  3.25060096153846 9.33035714285714  C 3.39122596153846 8.43005952380952  3.46153846153846 7.46279761904762  3.46153846153846 6.42857142857143  C 3.46153846153846 5.29761904761905  3.88341346153846 4.24665178571429  4.72716346153846 3.27566964285714  C 5.57091346153846 2.3046875  6.67788461538462 1.71502976190476  8.04807692307692 1.50669642857143  C 7.99038461538462 1.36532738095238  7.96153846153846 1.2202380952381  7.96153846153846 1.07142857142857  C 7.96153846153846 0.773809523809523  8.0625 0.520833333333333  8.26442307692308 0.3125  C 8.46634615384616 0.104166666666667  8.71153846153846 0  9 0  C 9.28846153846154 0  9.53365384615385 0.104166666666667  9.73557692307692 0.3125  C 9.9375 0.520833333333333  10.0384615384615 0.773809523809523  10.0384615384615 1.07142857142857  C 10.0384615384615 1.2202380952381  10.0096153846154 1.36532738095238  9.95192307692308 1.50669642857143  C 11.3221153846154 1.71502976190476  12.4290865384615 2.3046875  13.2728365384615 3.27566964285714  C 14.1165865384615 4.24665178571429  14.5384615384615 5.29761904761905  14.5384615384615 6.42857142857143  C 14.5384615384615 7.46279761904762  14.6087740384615 8.43005952380952  14.7493990384615 9.33035714285714  C 14.8900240384615 10.2306547619048  15.0703125 10.9970238095238  15.2902644230769 11.6294642857143  C 15.5102163461538 12.2619047619048  15.7788461538462 12.8515625  16.0961538461538 13.3984375  C 16.4134615384615 13.9453125  16.7199519230769 14.389880952381  17.015625 14.7321428571429  Z " fill-rule="nonzero" fill="#c9cacc" stroke="none" transform="matrix(1 0 0 1 13 20 )" />
  </g>
</svg>