<?xml version="1.0" encoding="utf-8"?>
<svg version="1.1" xmlns:xlink="http://www.w3.org/1999/xlink" width="28px" height="28px" xmlns="http://www.w3.org/2000/svg">
  <defs>
    <filter x="339px" y="349px" width="28px" height="28px" filterUnits="userSpaceOnUse" id="filter406">
      <feOffset dx="1" dy="1" in="SourceAlpha" result="shadowOffsetInner" />
      <feGaussianBlur stdDeviation="2.5" in="shadowOffsetInner" result="shadowGaussian" />
      <feComposite in2="shadowGaussian" operator="atop" in="SourceAlpha" result="shadowComposite" />
      <feColorMatrix type="matrix" values="0 0 0 0 0  0 0 0 0 0  0 0 0 0 0  0 0 0 0.698039215686274 0  " in="shadowComposite" />
    </filter>
    <g id="widget407">
      <path d="M 352 353  C 357.04 353  361 356.96  361 362  C 361 367.04  357.04 371  352 371  C 346.96 371  343 367.04  343 362  C 343 356.96  346.96 353  352 353  Z " fill-rule="nonzero" fill="#009dd9" stroke="none" />
      <path d="M 352 353.5  C 356.76 353.5  360.5 357.24  360.5 362  C 360.5 366.76  356.76 370.5  352 370.5  C 347.24 370.5  343.5 366.76  343.5 362  C 343.5 357.24  347.24 353.5  352 353.5  Z " stroke-width="1" stroke="#ffffff" fill="none" />
    </g>
  </defs>
  <g transform="matrix(1 0 0 1 -339 -349 )">
    <use xlink:href="#widget407" filter="url(#filter406)" />
    <use xlink:href="#widget407" />
  </g>
</svg>