<?xml version="1.0" encoding="utf-8"?>
<svg version="1.1" xmlns:xlink="http://www.w3.org/1999/xlink" width="16px" height="15px" xmlns="http://www.w3.org/2000/svg">
  <g transform="matrix(1 0 0 1 -89 -270 )">
    <path d="M 13.6039800995025 13.7109375  L 14.2646766169154 13.0161830357143  C 14.3655058043118 12.91015625  14.4849087893864 12.8571428571429  14.6228855721393 12.8571428571429  C 14.7608623548922 12.8571428571429  14.8802653399668 12.91015625  14.9810945273632 13.0161830357143  L 16 14.0876116071429  L 15.2835820895522 14.8409598214286  L 14.6228855721393 14.1462053571429  L 13.9621890547264 14.8409598214286  C 13.8666666666667 14.9469866071429  13.747263681592 15  13.6039800995025 15  C 13.4606965174129 15  13.3412935323383 14.9469866071429  13.2457711442786 14.8409598214286  L 12.5850746268657 14.1462053571429  L 11.9243781094527 14.8409598214286  C 11.8235489220564 14.9469866071429  11.7041459369818 15  11.5661691542289 15  C 11.428192371476 15  11.3087893864013 14.9469866071429  11.207960199005 14.8409598214286  L 10.547263681592 14.1462053571429  L 9.88656716417911 14.8409598214286  C 9.78573797678275 14.9469866071429  9.66633499170813 15  9.52835820895522 15  C 9.39038142620232 15  9.2709784411277 14.9469866071429  9.17014925373134 14.8409598214286  L 8.50945273631841 14.1462053571429  L 7.84875621890547 14.8409598214286  C 7.74792703150912 14.9469866071429  7.62852404643449 15  7.49054726368159 15  C 7.35257048092869 15  7.23316749585406 14.9469866071429  7.13233830845771 14.8409598214286  L 6.47164179104478 14.1462053571429  L 5.81094527363184 14.8409598214286  C 5.71011608623549 14.9469866071429  5.59071310116086 15  5.45273631840796 15  C 5.31475953565506 15  5.19535655058043 14.9469866071429  5.09452736318408 14.8409598214286  L 4.43383084577114 14.1462053571429  L 3.77313432835821 14.8409598214286  C 3.67230514096186 14.9469866071429  3.55290215588723 15  3.41492537313433 15  C 3.27694859038143 15  3.1575456053068 14.9469866071429  3.05671641791045 14.8409598214286  L 2.39601990049751 14.1462053571429  L 1.73532338308458 14.8409598214286  C 1.63449419568823 14.9469866071429  1.5150912106136 15  1.3771144278607 15  C 1.23913764510779 15  1.11973466003317 14.9469866071429  1.01890547263682 14.8409598214286  L 0 13.76953125  L 0.716417910447761 13.0161830357143  L 1.3771144278607 13.7109375  L 2.03781094527363 13.0161830357143  C 2.13864013266998 12.91015625  2.25804311774461 12.8571428571429  2.39601990049751 12.8571428571429  C 2.53399668325042 12.8571428571429  2.65339966832504 12.91015625  2.75422885572139 13.0161830357143  L 3.41492537313433 13.7109375  L 4.07562189054726 13.0161830357143  C 4.17645107794362 12.91015625  4.29585406301824 12.8571428571429  4.43383084577114 12.8571428571429  C 4.57180762852405 12.8571428571429  4.69121061359867 12.91015625  4.79203980099502 13.0161830357143  L 5.45273631840796 13.7109375  L 6.1134328358209 13.0161830357143  C 6.21426202321725 12.91015625  6.33366500829187 12.8571428571429  6.47164179104478 12.8571428571429  C 6.60961857379768 12.8571428571429  6.72902155887231 12.91015625  6.82985074626866 13.0161830357143  L 7.49054726368159 13.7109375  L 8.15124378109453 13.0161830357143  C 8.25207296849088 12.91015625  8.37147595356551 12.8571428571429  8.50945273631841 12.8571428571429  C 8.64742951907131 12.8571428571429  8.76683250414594 12.91015625  8.86766169154229 13.0161830357143  L 9.52835820895522 13.7109375  L 10.1890547263682 13.0161830357143  C 10.2898839137645 12.91015625  10.4092868988391 12.8571428571429  10.547263681592 12.8571428571429  C 10.6852404643449 12.8571428571429  10.8046434494196 12.91015625  10.9054726368159 13.0161830357143  L 11.5661691542289 13.7109375  L 12.2268656716418 13.0161830357143  C 12.3276948590381 12.91015625  12.4470978441128 12.8571428571429  12.5850746268657 12.8571428571429  C 12.7230514096186 12.8571428571429  12.8424543946932 12.91015625  12.9432835820896 13.0161830357143  L 13.6039800995025 13.7109375  Z M 2.39601990049751 12.0033482142857  L 1.73532338308458 12.6981026785714  C 1.63449419568823 12.8041294642857  1.5150912106136 12.8571428571429  1.3771144278607 12.8571428571429  C 1.23913764510779 12.8571428571429  1.11973466003317 12.8041294642857  1.01890547263682 12.6981026785714  L 0 11.6266741071429  L 0.716417910447761 10.8733258928571  L 1.3771144278607 11.5597098214286  L 2.03781094527363 10.8733258928571  C 2.13864013266998 10.7672991071429  2.25804311774461 10.7142857142857  2.39601990049751 10.7142857142857  C 2.53399668325042 10.7142857142857  2.65339966832504 10.7672991071429  2.75422885572139 10.8733258928571  L 3.41492537313433 11.5597098214286  L 3.92437810945274 11.0239955357143  L 3.92437810945274 8.57142857142857  L 2.25273631840796 5.94308035714286  C 2.16252072968491 5.79799107142857  2.14394693200663 5.64034598214286  2.19701492537313 5.47014508928571  C 2.25008291873964 5.29994419642857  2.35621890547264 5.18694196428571  2.51542288557214 5.13113839285714  L 3.92437810945274 4.64564732142857  L 3.92437810945274 2.14285714285714  L 4.94328358208955 2.14285714285714  L 4.94328358208955 1.07142857142857  L 6.98109452736318 1.07142857142857  L 6.98109452736318 0  L 9.01890547263682 0  L 9.01890547263682 1.07142857142857  L 11.0567164179104 1.07142857142857  L 11.0567164179104 2.14285714285714  L 12.0756218905473 2.14285714285714  L 12.0756218905473 4.64564732142857  L 13.4845771144279 5.13113839285714  C 13.6437810945274 5.18694196428571  13.7499170812604 5.29994419642857  13.8029850746269 5.47014508928571  C 13.8560530679934 5.64034598214286  13.8374792703151 5.79799107142857  13.747263681592 5.94308035714286  L 12.0756218905473 8.57142857142857  L 12.0756218905473 11.0239955357143  L 12.2268656716418 10.8733258928571  C 12.3276948590381 10.7672991071429  12.4470978441128 10.7142857142857  12.5850746268657 10.7142857142857  C 12.7230514096186 10.7142857142857  12.8424543946932 10.7672991071429  12.9432835820896 10.8733258928571  L 13.6039800995025 11.5597098214286  L 14.2646766169154 10.8733258928571  C 14.3655058043118 10.7672991071429  14.4849087893864 10.7142857142857  14.6228855721393 10.7142857142857  C 14.7608623548922 10.7142857142857  14.8802653399668 10.7672991071429  14.9810945273632 10.8733258928571  L 16 11.9447544642857  L 15.2835820895522 12.6981026785714  L 14.6228855721393 12.0033482142857  L 13.9621890547264 12.6981026785714  C 13.8666666666667 12.8041294642857  13.747263681592 12.8571428571429  13.6039800995025 12.8571428571429  C 13.4606965174129 12.8571428571429  13.3412935323383 12.8041294642857  13.2457711442786 12.6981026785714  L 12.5850746268657 12.0033482142857  L 11.9243781094527 12.6981026785714  C 11.8235489220564 12.8041294642857  11.7041459369818 12.8571428571429  11.5661691542289 12.8571428571429  C 11.428192371476 12.8571428571429  11.3087893864013 12.8041294642857  11.207960199005 12.6981026785714  L 10.547263681592 12.0033482142857  L 9.88656716417911 12.6981026785714  C 9.78573797678275 12.8041294642857  9.66633499170813 12.8571428571429  9.52835820895522 12.8571428571429  C 9.39038142620232 12.8571428571429  9.2709784411277 12.8041294642857  9.17014925373134 12.6981026785714  L 8.50945273631841 12.0033482142857  L 7.84875621890547 12.6981026785714  C 7.74792703150912 12.8041294642857  7.62852404643449 12.8571428571429  7.49054726368159 12.8571428571429  C 7.35257048092869 12.8571428571429  7.23316749585406 12.8041294642857  7.13233830845771 12.6981026785714  L 6.47164179104478 12.0033482142857  L 5.81094527363184 12.6981026785714  C 5.71011608623549 12.8041294642857  5.59071310116086 12.8571428571429  5.45273631840796 12.8571428571429  C 5.31475953565506 12.8571428571429  5.19535655058043 12.8041294642857  5.09452736318408 12.6981026785714  L 4.43383084577114 12.0033482142857  L 3.77313432835821 12.6981026785714  C 3.67230514096186 12.8041294642857  3.55290215588723 12.8571428571429  3.41492537313433 12.8571428571429  C 3.27694859038143 12.8571428571429  3.1575456053068 12.8041294642857  3.05671641791045 12.6981026785714  L 2.39601990049751 12.0033482142857  Z M 5.96218905472637 3.21428571428571  L 4.94328358208955 3.21428571428571  L 4.94328358208955 4.28571428571429  L 8 3.21428571428571  L 11.0567164179104 4.28571428571429  L 11.0567164179104 3.21428571428571  L 10.0378109452736 3.21428571428571  L 10.0378109452736 2.14285714285714  L 5.96218905472637 2.14285714285714  L 5.96218905472637 3.21428571428571  Z " fill-rule="nonzero" fill="#000000" stroke="none" transform="matrix(1 0 0 1 89 270 )" />
  </g>
</svg>