<?xml version="1.0" encoding="utf-8"?>
<svg version="1.1" xmlns:xlink="http://www.w3.org/1999/xlink" width="18px" height="18px" xmlns="http://www.w3.org/2000/svg">
  <g transform="matrix(1 0 0 1 -39 -59 )">
    <path d="M 7.875 15.0703125  C 8.078125 15.0703125  8.25390625 14.99609375  8.40234375 14.84765625  L 13.72265625 9.52734375  C 13.87109375 9.37890625  13.9453125 9.203125  13.9453125 9  C 13.9453125 8.796875  13.87109375 8.62109375  13.72265625 8.47265625  L 8.40234375 3.15234375  C 8.25390625 3.00390625  8.078125 2.9296875  7.875 2.9296875  C 7.671875 2.9296875  7.49609375 3.00390625  7.34765625 3.15234375  L 6.15234375 4.34765625  C 6.00390625 4.49609375  5.9296875 4.671875  5.9296875 4.875  C 5.9296875 5.078125  6.00390625 5.25390625  6.15234375 5.40234375  L 9.75 9  L 6.15234375 12.59765625  C 6.00390625 12.74609375  5.9296875 12.921875  5.9296875 13.125  C 5.9296875 13.328125  6.00390625 13.50390625  6.15234375 13.65234375  L 7.34765625 14.84765625  C 7.49609375 14.99609375  7.671875 15.0703125  7.875 15.0703125  Z M 16.79296875 4.482421875  C 17.59765625 5.861328125  18 7.3671875  18 9  C 18 10.6328125  17.59765625 12.138671875  16.79296875 13.517578125  C 15.98828125 14.896484375  14.896484375 15.98828125  13.517578125 16.79296875  C 12.138671875 17.59765625  10.6328125 18  9 18  C 7.3671875 18  5.861328125 17.59765625  4.482421875 16.79296875  C 3.103515625 15.98828125  2.01171875 14.896484375  1.20703125 13.517578125  C 0.40234375 12.138671875  0 10.6328125  0 9  C 0 7.3671875  0.40234375 5.861328125  1.20703125 4.482421875  C 2.01171875 3.103515625  3.103515625 2.01171875  4.482421875 1.20703125  C 5.861328125 0.402343749999998  7.3671875 0  9 0  C 10.6328125 0  12.138671875 0.402343749999998  13.517578125 1.20703125  C 14.896484375 2.01171875  15.98828125 3.103515625  16.79296875 4.482421875  Z " fill-rule="nonzero" fill="#ec808d" stroke="none" transform="matrix(1 0 0 1 39 59 )" />
  </g>
</svg>