<?xml version="1.0" encoding="utf-8"?>
<svg version="1.1" xmlns:xlink="http://www.w3.org/1999/xlink" width="8px" height="8px" xmlns="http://www.w3.org/2000/svg">
  <g transform="matrix(1 0 0 1 -137 -5 )">
    <path d="M 7.81144781144781 5.97979797979798  C 7.9371492704826 6.10549943883277  8 6.25813692480359  8 6.43771043771044  C 8 6.61728395061728  7.9371492704826 6.7699214365881  7.81144781144781 6.8956228956229  L 6.8956228956229 7.81144781144781  C 6.7699214365881 7.9371492704826  6.61728395061728 8  6.43771043771044 8  C 6.25813692480359 8  6.10549943883277 7.9371492704826  5.97979797979798 7.81144781144781  L 4 5.83164983164983  L 2.02020202020202 7.81144781144781  C 1.89450056116723 7.9371492704826  1.74186307519641 8  1.56228956228956 8  C 1.38271604938272 8  1.2300785634119 7.9371492704826  1.1043771043771 7.81144781144781  L 0.188552188552189 6.8956228956229  C 0.0628507295173962 6.7699214365881  0 6.61728395061728  0 6.43771043771044  C 0 6.25813692480359  0.0628507295173962 6.10549943883277  0.188552188552189 5.97979797979798  L 2.16835016835017 4  L 0.188552188552189 2.02020202020202  C 0.0628507295173962 1.89450056116723  0 1.74186307519641  0 1.56228956228956  C 0 1.38271604938272  0.0628507295173962 1.2300785634119  0.188552188552189 1.1043771043771  L 1.1043771043771 0.188552188552189  C 1.2300785634119 0.0628507295173959  1.38271604938272 0  1.56228956228956 0  C 1.74186307519641 0  1.89450056116723 0.0628507295173959  2.02020202020202 0.188552188552189  L 4 2.16835016835017  L 5.97979797979798 0.188552188552189  C 6.10549943883277 0.0628507295173959  6.25813692480359 0  6.43771043771044 0  C 6.61728395061728 0  6.7699214365881 0.0628507295173959  6.8956228956229 0.188552188552189  L 7.81144781144781 1.1043771043771  C 7.9371492704826 1.2300785634119  8 1.38271604938272  8 1.56228956228956  C 8 1.74186307519641  7.9371492704826 1.89450056116723  7.81144781144781 2.02020202020202  L 5.83164983164983 4  L 7.81144781144781 5.97979797979798  Z " fill-rule="nonzero" fill="#7f7f7f" stroke="none" transform="matrix(1 0 0 1 137 5 )" />
  </g>
</svg>