<?xml version="1.0" encoding="utf-8"?>
<svg version="1.1" xmlns:xlink="http://www.w3.org/1999/xlink" width="18px" height="18px" xmlns="http://www.w3.org/2000/svg">
  <g transform="matrix(1 0 0 1 -59 -44 )">
    <path d="M 16.9895833333333 4.78010471204188  C 17.6631944444444 6.07504363001745  18 7.46596858638743  18 8.95287958115183  C 18 10.1815008726003  17.7621527777778 11.3542757417103  17.2864583333333 12.4712041884817  C 16.8107638888889 13.5881326352531  16.171875 14.5497382198953  15.3697916666667 15.3560209424084  C 14.5677083333333 16.1623036649215  13.6111111111111 16.804537521815  12.5 17.282722513089  C 11.3888888888889 17.760907504363  10.2222222222222 18  9 18  C 7.77777777777778 18  6.61111111111111 17.760907504363  5.5 17.282722513089  C 4.38888888888889 16.804537521815  3.43229166666667 16.1623036649215  2.63020833333333 15.3560209424084  C 1.828125 14.5497382198953  1.18923611111111 13.5881326352531  0.713541666666667 12.4712041884817  C 0.237847222222222 11.3542757417103  0 10.1815008726003  0 8.95287958115183  C 0 7.46596858638743  0.336805555555556 6.07504363001745  1.01041666666667 4.78010471204188  C 1.68402777777778 3.48516579406632  2.60416666666667 2.41884816753927  3.77083333333333 1.58115183246073  C 4.9375 0.7434554973822  6.23611111111111 0.216404886561954  7.66666666666667 0  L 7.66666666666667 2.38743455497382  C 6.13194444444445 2.70157068062827  4.859375 3.47294938917975  3.84895833333333 4.70157068062827  C 2.83854166666667 5.93019197207679  2.33333333333333 7.34729493891797  2.33333333333333 8.95287958115183  C 2.33333333333333 9.86038394415358  2.51041666666667 10.7277486910995  2.86458333333333 11.5549738219895  C 3.21875 12.3821989528796  3.69270833333333 13.0942408376963  4.28645833333333 13.6910994764398  C 4.88020833333333 14.2879581151832  5.58854166666667 14.7643979057592  6.41145833333333 15.1204188481675  C 7.234375 15.4764397905759  8.09722222222222 15.6544502617801  9 15.6544502617801  C 9.90277777777778 15.6544502617801  10.765625 15.4764397905759  11.5885416666667 15.1204188481675  C 12.4114583333333 14.7643979057592  13.1197916666667 14.2879581151832  13.7135416666667 13.6910994764398  C 14.3072916666667 13.0942408376963  14.78125 12.3821989528796  15.1354166666667 11.5549738219895  C 15.4895833333333 10.7277486910995  15.6666666666667 9.86038394415358  15.6666666666667 8.95287958115183  C 15.6666666666667 7.34729493891797  15.1614583333333 5.93019197207679  14.1510416666667 4.70157068062827  C 13.140625 3.47294938917975  11.8680555555556 2.70157068062827  10.3333333333333 2.38743455497382  L 10.3333333333333 0  C 11.7638888888889 0.216404886561954  13.0625 0.7434554973822  14.2291666666667 1.58115183246073  C 15.3958333333333 2.41884816753927  16.3159722222222 3.48516579406632  16.9895833333333 4.78010471204188  Z " fill-rule="nonzero" fill="#ec808d" stroke="none" transform="matrix(1 0 0 1 59 44 )" />
  </g>
</svg>