<?xml version="1.0" encoding="utf-8"?>
<svg version="1.1" xmlns:xlink="http://www.w3.org/1999/xlink" width="15px" height="18px" xmlns="http://www.w3.org/2000/svg">
  <g transform="matrix(1 0 0 1 -145 -59 )">
    <path d="M 14.609375 5.14285714285714  L 10 5.14285714285714  L 10 0.401785714285715  C 10.1432291666667 0.495535714285714  10.2604166666667 0.589285714285712  10.3515625 0.683035714285715  L 14.3359375 4.78125  C 14.4270833333333 4.875  14.5182291666667 4.99553571428571  14.609375 5.14285714285714  Z M 8.75 0  L 8.75 5.46428571428572  C 8.75 5.73214285714286  8.84114583333333 5.95982142857143  9.0234375 6.14732142857143  C 9.20572916666667 6.33482142857143  9.42708333333333 6.42857142857143  9.6875 6.42857142857143  L 15 6.42857142857143  L 15 17.0357142857143  C 15 17.3035714285714  14.9088541666667 17.53125  14.7265625 17.71875  C 14.5442708333333 17.90625  14.3229166666667 18  14.0625 18  L 0.9375 18  C 0.677083333333333 18  0.455729166666667 17.90625  0.2734375 17.71875  C 0.0911458333333333 17.53125  0 17.3035714285714  0 17.0357142857143  L 0 0.964285714285715  C 0 0.696428571428571  0.0911458333333333 0.468749999999999  0.2734375 0.28125  C 0.455729166666667 0.0937500000000007  0.677083333333333 0  0.9375 0  L 8.75 0  Z " fill-rule="nonzero" fill="#ec808d" stroke="none" transform="matrix(1 0 0 1 145 59 )" />
  </g>
</svg>