<?xml version="1.0" encoding="utf-8"?>
<svg version="1.1" xmlns:xlink="http://www.w3.org/1999/xlink" width="20px" height="17px" xmlns="http://www.w3.org/2000/svg">
  <g transform="matrix(1 0 0 1 -46 -98 )">
    <path d="M 8.13775510204082 15.545703125  C 8.12925170068027 15.5944010416667  8.13775510204082 15.6541666666667  8.16326530612245 15.725  C 8.16326530612245 15.7604166666667  8.16751700680272 15.8489583333333  8.17602040816326 15.990625  C 8.18452380952381 16.1322916666667  8.18664965986395 16.249609375  8.18239795918367 16.342578125  C 8.1781462585034 16.435546875  8.16539115646259 16.5395833333333  8.14413265306122 16.6546875  C 8.12287414965986 16.7697916666667  8.08035714285714 16.8561197916667  8.01658163265306 16.913671875  C 7.95280612244898 16.9712239583333  7.8656462585034 17  7.75510204081633 17  L 3.6734693877551 17  C 2.66156462585034 17  1.79634353741497 16.6259114583333  1.07780612244898 15.877734375  C 0.359268707482993 15.1295572916667  0 14.2286458333333  0 13.175  L 0 3.825  C 0 2.77135416666666  0.359268707482993 1.87044270833333  1.07780612244898 1.122265625  C 1.79634353741497 0.374088541666664  2.66156462585034 0  3.6734693877551 0  L 7.75510204081633 0  C 7.8656462585034 0  7.96130952380952 0.0420572916666643  8.04209183673469 0.126171875  C 8.12287414965986 0.210286458333333  8.16326530612245 0.309895833333333  8.16326530612245 0.425  C 8.16326530612245 0.460416666666665  8.16751700680272 0.548958333333332  8.17602040816326 0.690625  C 8.18452380952381 0.832291666666665  8.18664965986395 0.949609375000001  8.18239795918367 1.042578125  C 8.1781462585034 1.135546875  8.16539115646259 1.23958333333333  8.14413265306122 1.3546875  C 8.12287414965986 1.46979166666666  8.08035714285714 1.55611979166666  8.01658163265306 1.613671875  C 7.95280612244898 1.67122395833333  7.8656462585034 1.7  7.75510204081633 1.7  L 3.6734693877551 1.7  C 3.11224489795918 1.7  2.63180272108844 1.90807291666666  2.23214285714286 2.32421875  C 1.83248299319728 2.74036458333333  1.63265306122449 3.240625  1.63265306122449 3.825  L 1.63265306122449 13.175  C 1.63265306122449 13.759375  1.83248299319728 14.2596354166667  2.23214285714286 14.67578125  C 2.63180272108844 15.0919270833333  3.11224489795918 15.3  3.6734693877551 15.3  L 7.3469387755102 15.3  L 7.48724489795918 15.3  L 7.6530612244898 15.3  C 7.6530612244898 15.3  7.70195578231293 15.3044270833333  7.79974489795918 15.31328125  C 7.89753401360544 15.3221354166667  7.94642857142857 15.3354166666667  7.94642857142857 15.353125  C 7.94642857142857 15.3708333333333  7.98044217687075 15.3951822916667  8.0484693877551 15.426171875  C 8.11649659863946 15.4571614583333  8.14625850340136 15.4970052083333  8.13775510204082 15.545703125  Z M 19.7576530612245 7.90234375  C 19.9192176870748 8.07057291666667  20 8.26979166666667  20 8.5  C 20 8.73020833333333  19.9192176870748 8.92942708333333  19.7576530612245 9.09765625  L 12.8188775510204 16.32265625  C 12.6573129251701 16.4908854166667  12.4659863945578 16.575  12.2448979591837 16.575  C 12.0238095238095 16.575  11.8324829931973 16.4908854166667  11.6709183673469 16.32265625  C 11.5093537414966 16.1544270833333  11.4285714285714 15.9552083333333  11.4285714285714 15.725  L 11.4285714285714 11.9  L 5.71428571428571 11.9  C 5.49319727891156 11.9  5.30187074829932 11.8158854166667  5.14030612244898 11.64765625  C 4.97874149659864 11.4794270833333  4.89795918367347 11.2802083333333  4.89795918367347 11.05  L 4.89795918367347 5.95  C 4.89795918367347 5.71979166666666  4.97874149659864 5.52057291666666  5.14030612244898 5.35234375  C 5.30187074829932 5.18411458333333  5.49319727891156 5.1  5.71428571428571 5.1  L 11.4285714285714 5.1  L 11.4285714285714 1.275  C 11.4285714285714 1.04479166666666  11.5093537414966 0.845572916666664  11.6709183673469 0.677343749999999  C 11.8324829931973 0.509114583333333  12.0238095238095 0.425  12.2448979591837 0.425  C 12.4659863945578 0.425  12.6573129251701 0.509114583333333  12.8188775510204 0.677343749999999  L 19.7576530612245 7.90234375  Z " fill-rule="nonzero" fill="#000000" stroke="none" transform="matrix(1 0 0 1 46 98 )" />
  </g>
</svg>