<?xml version="1.0" encoding="utf-8"?>
<svg version="1.1" xmlns:xlink="http://www.w3.org/1999/xlink" width="24px" height="24px" xmlns="http://www.w3.org/2000/svg">
  <g transform="matrix(1 0 0 1 -123 -399 )">
    <path d="M 10.0848214285714 21.7633928571429  C 10.6651785714286 21.8705357142857  11.2053571428571 21.9285714285714  11.7053571428571 21.9375  L 11.7053571428571 22.8214285714286  C 9.84821428571429 22.7678571428571  8.12946428571428 22.2790178571429  6.54910714285714 21.3549107142857  C 4.96875 20.4308035714286  3.70535714285714 19.2008928571429  2.75892857142857 17.6651785714286  L 3.53571428571429 17.2098214285714  C 3.79464285714286 17.6473214285714  4.12053571428571 18.0892857142857  4.51339285714286 18.5357142857143  L 5.38392857142857 17.7723214285714  C 6.70535714285714 19.2723214285714  8.34821428571428 20.21875  10.3125 20.6116071428571  L 10.0848214285714 21.7633928571429  Z M 3.21428571428571 12  C 3.21428571428571 12.9732142857143  3.375 13.9196428571429  3.69642857142857 14.8392857142857  L 2.58482142857143 15.2142857142857  C 2.78125 15.75  3 16.25  3.24107142857143 16.7142857142857  L 2.47767857142857 17.15625  C 1.60267857142857 15.5491071428571  1.16517857142857 13.8303571428571  1.16517857142857 12  C 1.16517857142857 10.1696428571429  1.60267857142857 8.45089285714286  2.47767857142857 6.84375  L 3.24107142857143 7.28571428571429  C 2.97321428571429 7.78571428571428  2.75446428571429 8.28571428571428  2.58482142857143 8.78571428571429  L 3.68303571428571 9.16071428571429  C 3.37053571428571 10.0535714285714  3.21428571428571 11  3.21428571428571 12  Z M 19.4866071428571 18.5357142857143  C 19.8794642857143 18.0892857142857  20.2053571428571 17.6473214285714  20.4642857142857 17.2098214285714  L 21.2410714285714 17.6651785714286  C 20.2946428571429 19.2008928571429  19.03125 20.4308035714286  17.4508928571429 21.3549107142857  C 15.8705357142857 22.2790178571429  14.1517857142857 22.7678571428571  12.2946428571429 22.8214285714286  L 12.2946428571429 21.9375  C 12.7946428571429 21.9285714285714  13.3348214285714 21.8705357142857  13.9151785714286 21.7633928571429  L 13.6875 20.6116071428571  C 15.6517857142857 20.21875  17.2946428571429 19.2723214285714  18.6160714285714 17.7723214285714  L 19.4866071428571 18.5357142857143  Z M 17.1160714285714 7.52678571428571  C 17.7053571428571 8.20535714285714  18.1473214285714 8.95982142857143  18.4419642857143 9.79017857142857  L 15.3214285714286 10.8616071428571  C 15.4464285714286 11.2366071428571  15.5089285714286 11.6160714285714  15.5089285714286 12  C 15.5089285714286 12.3839285714286  15.4464285714286 12.7633928571429  15.3214285714286 13.1383928571429  L 18.4285714285714 14.2098214285714  C 18.1517857142857 15.03125  17.7142857142857 15.7857142857143  17.1160714285714 16.4732142857143  L 14.6383928571429 14.3035714285714  C 14.1294642857143 14.9017857142857  13.4732142857143 15.28125  12.6696428571429 15.4419642857143  L 13.3125 18.6696428571429  C 12.8482142857143 18.7589285714286  12.4107142857143 18.8035714285714  12 18.8035714285714  C 11.5892857142857 18.8035714285714  11.1517857142857 18.7589285714286  10.6875 18.6696428571429  L 11.3303571428571 15.4419642857143  C 10.5267857142857 15.28125  9.87053571428572 14.9017857142857  9.36160714285714 14.3035714285714  L 6.88392857142857 16.4732142857143  C 6.28571428571429 15.7857142857143  5.84821428571429 15.03125  5.57142857142857 14.2098214285714  L 8.67857142857143 13.1383928571429  C 8.55357142857143 12.7633928571429  8.49107142857143 12.3839285714286  8.49107142857143 12  C 8.49107142857143 11.6160714285714  8.55357142857143 11.2366071428571  8.67857142857143 10.8616071428571  L 5.55803571428571 9.79017857142857  C 5.85267857142857 8.95982142857143  6.29464285714286 8.20535714285714  6.88392857142857 7.52678571428571  L 9.36160714285714 9.69642857142857  C 9.88839285714286 9.08928571428571  10.5446428571429 8.70535714285714  11.3303571428571 8.54464285714286  L 10.6875 5.33035714285714  C 11.0803571428571 5.24107142857143  11.5178571428571 5.19642857142857  12 5.19642857142857  C 12.4821428571429 5.19642857142857  12.9196428571429 5.24107142857143  13.3125 5.33035714285714  L 12.6696428571429 8.54464285714286  C 13.4553571428571 8.70535714285714  14.1116071428571 9.08928571428571  14.6383928571429 9.69642857142857  L 17.1160714285714 7.52678571428571  Z M 6.54910714285714 2.64508928571429  C 8.12053571428572 1.72098214285714  9.83928571428572 1.23214285714286  11.7053571428571 1.17857142857143  L 11.7053571428571 2.0625  C 11.125 2.08035714285714  10.5848214285714 2.13839285714286  10.0848214285714 2.23660714285714  L 10.3125 3.38839285714286  C 8.34821428571428 3.76339285714286  6.70535714285714 4.70535714285714  5.38392857142857 6.21428571428571  L 4.51339285714286 5.46428571428571  C 4.17410714285714 5.83928571428571  3.84821428571429 6.27678571428571  3.53571428571429 6.77678571428571  L 2.77232142857143 6.33482142857143  C 3.71875 4.79910714285714  4.97767857142857 3.56919642857143  6.54910714285714 2.64508928571429  Z M 21.5223214285714 6.84375  C 22.3973214285714 8.45089285714286  22.8348214285714 10.1696428571429  22.8348214285714 12  C 22.8348214285714 13.8303571428571  22.3973214285714 15.5491071428571  21.5223214285714 17.15625  L 20.7589285714286 16.7142857142857  C 21 16.25  21.21875 15.75  21.4151785714286 15.2142857142857  L 20.3035714285714 14.8392857142857  C 20.625 13.9196428571429  20.7857142857143 12.9732142857143  20.7857142857143 12  C 20.7857142857143 11  20.6294642857143 10.0535714285714  20.3169642857143 9.16071428571429  L 21.4151785714286 8.78571428571429  C 21.2455357142857 8.28571428571428  21.0267857142857 7.78571428571428  20.7589285714286 7.28571428571429  L 21.5223214285714 6.84375  Z M 17.4508928571429 2.64508928571429  C 19.0223214285714 3.56919642857143  20.28125 4.79910714285714  21.2276785714286 6.33482142857143  L 20.4642857142857 6.77678571428571  C 20.1517857142857 6.27678571428571  19.8258928571429 5.83928571428571  19.4866071428571 5.46428571428571  L 18.6160714285714 6.21428571428571  C 17.2946428571429 4.70535714285714  15.6517857142857 3.76339285714286  13.6875 3.38839285714286  L 13.9151785714286 2.23660714285714  C 13.4151785714286 2.13839285714286  12.875 2.08035714285714  12.2946428571429 2.0625  L 12.2946428571429 1.17857142857143  C 14.1607142857143 1.23214285714286  15.8794642857143 1.72098214285714  17.4508928571429 2.64508928571429  Z M 22.5066964285714 16.4330357142857  C 23.109375 15.0223214285714  23.4107142857143 13.5446428571429  23.4107142857143 12  C 23.4107142857143 10.4553571428571  23.109375 8.97767857142857  22.5066964285714 7.56696428571429  C 21.9040178571429 6.15625  21.09375 4.94196428571429  20.0758928571429 3.92410714285714  C 19.0580357142857 2.90625  17.84375 2.09598214285714  16.4330357142857 1.49330357142857  C 15.0223214285714 0.890625  13.5446428571429 0.589285714285714  12 0.589285714285714  C 10.4553571428571 0.589285714285714  8.97767857142857 0.890625  7.56696428571428 1.49330357142857  C 6.15625 2.09598214285714  4.94196428571429 2.90625  3.92410714285714 3.92410714285714  C 2.90625 4.94196428571429  2.09598214285714 6.15625  1.49330357142857 7.56696428571429  C 0.890625 8.97767857142857  0.589285714285714 10.4553571428571  0.589285714285714 12  C 0.589285714285714 13.5446428571429  0.890625 15.0223214285714  1.49330357142857 16.4330357142857  C 2.09598214285714 17.84375  2.90625 19.0580357142857  3.92410714285714 20.0758928571429  C 4.94196428571429 21.09375  6.15625 21.9040178571429  7.56696428571428 22.5066964285714  C 8.97767857142857 23.109375  10.4553571428571 23.4107142857143  12 23.4107142857143  C 13.5446428571429 23.4107142857143  15.0223214285714 23.109375  16.4330357142857 22.5066964285714  C 17.84375 21.9040178571429  19.0580357142857 21.09375  20.0758928571429 20.0758928571429  C 21.09375 19.0580357142857  21.9040178571429 17.84375  22.5066964285714 16.4330357142857  Z M 23.0491071428571 7.33928571428571  C 23.6830357142857 8.82142857142857  24 10.375  24 12  C 24 13.625  23.6830357142857 15.1785714285714  23.0491071428571 16.6607142857143  C 22.4151785714286 18.1428571428571  21.5625 19.4196428571429  20.4910714285714 20.4910714285714  C 19.4196428571429 21.5625  18.1428571428571 22.4151785714286  16.6607142857143 23.0491071428571  C 15.1785714285714 23.6830357142857  13.625 24  12 24  C 10.375 24  8.82142857142857 23.6830357142857  7.33928571428572 23.0491071428571  C 5.85714285714286 22.4151785714286  4.58035714285714 21.5625  3.50892857142857 20.4910714285714  C 2.4375 19.4196428571429  1.58482142857143 18.1428571428571  0.950892857142857 16.6607142857143  C 0.316964285714286 15.1785714285714  0 13.625  0 12  C 0 10.375  0.316964285714286 8.82142857142857  0.950892857142857 7.33928571428571  C 1.58482142857143 5.85714285714286  2.4375 4.58035714285714  3.50892857142857 3.50892857142857  C 4.58035714285714 2.4375  5.85714285714286 1.58482142857143  7.33928571428572 0.950892857142857  C 8.82142857142857 0.316964285714286  10.375 0  12 0  C 13.625 0  15.1785714285714 0.316964285714286  16.6607142857143 0.950892857142857  C 18.1428571428571 1.58482142857143  19.4196428571429 2.4375  20.4910714285714 3.50892857142857  C 21.5625 4.58035714285714  22.4151785714286 5.85714285714286  23.0491071428571 7.33928571428571  Z " fill-rule="nonzero" fill="#797979" stroke="none" transform="matrix(1 0 0 1 123 399 )" />
  </g>
</svg>