<?xml version="1.0" encoding="utf-8"?>
<svg version="1.1" xmlns:xlink="http://www.w3.org/1999/xlink" width="20px" height="6px" xmlns="http://www.w3.org/2000/svg">
  <g transform="matrix(1 0 0 1 -46 -765 )">
    <path d="M 5.05681818181818 0.4375  C 5.3219696969697 0.729166666666664  5.45454545454545 1.08333333333333  5.45454545454545 1.5  L 5.45454545454545 4.5  C 5.45454545454545 4.91666666666667  5.3219696969697 5.27083333333333  5.05681818181818 5.5625  C 4.79166666666667 5.85416666666667  4.46969696969697 6  4.09090909090909 6  L 1.36363636363636 6  C 0.984848484848485 6  0.662878787878788 5.85416666666667  0.397727272727273 5.5625  C 0.132575757575758 5.27083333333333  0 4.91666666666667  0 4.5  L 0 1.5  C 0 1.08333333333333  0.132575757575758 0.729166666666664  0.397727272727273 0.4375  C 0.662878787878788 0.145833333333332  0.984848484848485 0  1.36363636363636 0  L 4.09090909090909 0  C 4.46969696969697 0  4.79166666666667 0.145833333333332  5.05681818181818 0.4375  Z M 12.3295454545455 0.4375  C 12.594696969697 0.729166666666664  12.7272727272727 1.08333333333333  12.7272727272727 1.5  L 12.7272727272727 4.5  C 12.7272727272727 4.91666666666667  12.594696969697 5.27083333333333  12.3295454545455 5.5625  C 12.0643939393939 5.85416666666667  11.7424242424242 6  11.3636363636364 6  L 8.63636363636364 6  C 8.25757575757576 6  7.93560606060606 5.85416666666667  7.67045454545455 5.5625  C 7.40530303030303 5.27083333333333  7.27272727272727 4.91666666666667  7.27272727272727 4.5  L 7.27272727272727 1.5  C 7.27272727272727 1.08333333333333  7.40530303030303 0.729166666666664  7.67045454545455 0.4375  C 7.93560606060606 0.145833333333332  8.25757575757576 0  8.63636363636364 0  L 11.3636363636364 0  C 11.7424242424242 0  12.0643939393939 0.145833333333332  12.3295454545455 0.4375  Z M 19.6022727272727 0.4375  C 19.8674242424242 0.729166666666664  20 1.08333333333333  20 1.5  L 20 4.5  C 20 4.91666666666667  19.8674242424242 5.27083333333333  19.6022727272727 5.5625  C 19.3371212121212 5.85416666666667  19.0151515151515 6  18.6363636363636 6  L 15.9090909090909 6  C 15.530303030303 6  15.2083333333333 5.85416666666667  14.9431818181818 5.5625  C 14.6780303030303 5.27083333333333  14.5454545454545 4.91666666666667  14.5454545454545 4.5  L 14.5454545454545 1.5  C 14.5454545454545 1.08333333333333  14.6780303030303 0.729166666666664  14.9431818181818 0.4375  C 15.2083333333333 0.145833333333332  15.530303030303 0  15.9090909090909 0  L 18.6363636363636 0  C 19.0151515151515 0  19.3371212121212 0.145833333333332  19.6022727272727 0.4375  Z " fill-rule="nonzero" fill="#000000" stroke="none" transform="matrix(1 0 0 1 46 765 )" />
  </g>
</svg>