<?xml version="1.0" encoding="utf-8"?>
<svg version="1.1" xmlns:xlink="http://www.w3.org/1999/xlink" width="24px" height="24px" xmlns="http://www.w3.org/2000/svg">
  <g transform="matrix(1 0 0 1 -123 -933 )">
    <path d="M 7.33928571428572 0.950892857142857  C 8.82142857142857 0.316964285714286  10.375 0  12 0  C 13.625 0  15.1785714285714 0.316964285714286  16.6607142857143 0.950892857142857  C 18.1428571428571 1.58482142857143  19.4196428571429 2.4375  20.4910714285714 3.50892857142857  C 21.5625 4.58035714285714  22.4151785714286 5.85714285714286  23.0491071428571 7.33928571428571  C 23.6830357142857 8.82142857142857  24 10.375  24 12  C 24 13.625  23.6830357142857 15.1785714285714  23.0491071428571 16.6607142857143  C 22.4151785714286 18.1428571428571  21.5625 19.4196428571429  20.4910714285714 20.4910714285714  C 19.4196428571429 21.5625  18.1428571428571 22.4151785714286  16.6607142857143 23.0491071428571  C 15.1785714285714 23.6830357142857  13.625 24  12 24  C 10.375 24  8.82142857142857 23.6830357142857  7.33928571428572 23.0491071428571  C 5.85714285714286 22.4151785714286  4.58035714285714 21.5625  3.50892857142857 20.4910714285714  C 2.4375 19.4196428571429  1.58482142857143 18.1428571428571  0.950892857142857 16.6607142857143  C 0.316964285714286 15.1785714285714  0 13.625  0 12  C 0 10.375  0.316964285714286 8.82142857142857  0.950892857142857 7.33928571428571  C 1.58482142857143 5.85714285714286  2.4375 4.58035714285714  3.50892857142857 3.50892857142857  C 4.58035714285714 2.4375  5.85714285714286 1.58482142857143  7.33928571428572 0.950892857142857  Z M 16.8348214285714 2.91964285714286  C 15.3080357142857 2.11607142857143  13.6964285714286 1.71428571428571  12 1.71428571428571  C 10.3035714285714 1.71428571428571  8.69196428571428 2.11607142857143  7.16517857142857 2.91964285714286  L 9.76339285714286 5.51785714285714  C 10.4955357142857 5.26785714285714  11.2410714285714 5.14285714285714  12 5.14285714285714  C 12.7589285714286 5.14285714285714  13.5044642857143 5.26785714285714  14.2366071428571 5.51785714285714  L 16.8348214285714 2.91964285714286  Z M 1.71428571428571 12  C 1.71428571428571 13.6964285714286  2.11607142857143 15.3080357142857  2.91964285714286 16.8348214285714  L 5.51785714285714 14.2366071428571  C 5.26785714285714 13.5044642857143  5.14285714285714 12.7589285714286  5.14285714285714 12  C 5.14285714285714 11.2410714285714  5.26785714285714 10.4955357142857  5.51785714285714 9.76339285714286  L 2.91964285714286 7.16517857142857  C 2.11607142857143 8.69196428571429  1.71428571428571 10.3035714285714  1.71428571428571 12  Z M 7.16517857142857 21.0803571428571  C 8.69196428571428 21.8839285714286  10.3035714285714 22.2857142857143  12 22.2857142857143  C 13.6964285714286 22.2857142857143  15.3080357142857 21.8839285714286  16.8348214285714 21.0803571428571  L 14.2366071428571 18.4821428571429  C 13.5044642857143 18.7321428571429  12.7589285714286 18.8571428571429  12 18.8571428571429  C 11.2410714285714 18.8571428571429  10.4955357142857 18.7321428571429  9.76339285714286 18.4821428571429  L 7.16517857142857 21.0803571428571  Z M 8.36383928571428 15.6361607142857  C 9.36830357142857 16.640625  10.5803571428571 17.1428571428571  12 17.1428571428571  C 13.4196428571429 17.1428571428571  14.6316964285714 16.640625  15.6361607142857 15.6361607142857  C 16.640625 14.6316964285714  17.1428571428571 13.4196428571429  17.1428571428571 12  C 17.1428571428571 10.5803571428571  16.640625 9.36830357142857  15.6361607142857 8.36383928571429  C 14.6316964285714 7.359375  13.4196428571429 6.85714285714286  12 6.85714285714286  C 10.5803571428571 6.85714285714286  9.36830357142857 7.359375  8.36383928571428 8.36383928571429  C 7.359375 9.36830357142857  6.85714285714286 10.5803571428571  6.85714285714286 12  C 6.85714285714286 13.4196428571429  7.359375 14.6316964285714  8.36383928571428 15.6361607142857  Z M 18.8571428571429 12  C 18.8571428571429 12.7589285714286  18.7321428571429 13.5044642857143  18.4821428571429 14.2366071428571  L 21.0803571428571 16.8348214285714  C 21.8839285714286 15.3080357142857  22.2857142857143 13.6964285714286  22.2857142857143 12  C 22.2857142857143 10.3035714285714  21.8839285714286 8.69196428571429  21.0803571428571 7.16517857142857  L 18.4821428571429 9.76339285714286  C 18.7321428571429 10.4955357142857  18.8571428571429 11.2410714285714  18.8571428571429 12  Z " fill-rule="nonzero" fill="#797979" stroke="none" transform="matrix(1 0 0 1 123 933 )" />
  </g>
</svg>